<svg width="18" height="18" fill="currentColor" viewBox="0 0 18 18" xmlns="http://www.w3.org/2000/svg"><path d="M6.8379 1.26841C8.26307 0.869894 9.77083 0.872755 11.1943 1.2772L11.4981 1.36998L11.5693 1.39732C11.9169 1.55142 12.0984 1.94715 11.9775 2.31627C11.8567 2.68521 11.4768 2.89636 11.1055 2.81529L11.0313 2.79576L10.7842 2.71959C9.62654 2.39074 8.40018 2.38857 7.24122 2.71275L6.99415 2.78697C5.76331 3.1843 4.6801 3.93785 3.87989 4.94908L3.72364 5.15416C2.9617 6.19929 2.52921 7.44576 2.47657 8.73423L2.47071 8.99205C2.46885 10.3715 2.90428 11.716 3.71387 12.8329L3.86915 13.0389C4.66658 14.0522 5.74791 14.8082 6.97755 15.2088L7.22462 15.284C8.46533 15.6346 9.78458 15.6107 11.0147 15.2118L11.2588 15.1268C12.4684 14.6808 13.5209 13.8856 14.2813 12.8397L14.4287 12.6278C15.145 11.5557 15.5293 10.294 15.5293 9.00084C15.5293 8.58662 15.8651 8.25084 16.2793 8.25084C16.6935 8.25084 17.0293 8.58662 17.0293 9.00084C17.0293 10.5913 16.5568 12.1433 15.6758 13.4618L15.4941 13.7225C14.5591 15.0086 13.2649 15.9867 11.7774 16.535L11.4766 16.6385C9.96391 17.129 8.34212 17.1586 6.81641 16.7274L6.5127 16.6356C5.00059 16.1429 3.67106 15.2127 2.69044 13.9667L2.49903 13.7137C1.50346 12.3403 0.968441 10.6864 0.97071 8.99009L0.977546 8.67271C1.04233 7.08833 1.57479 5.55553 2.51173 4.27037L2.70411 4.01744C3.68804 2.77434 5.02001 1.84875 6.53321 1.36021L6.8379 1.26841Z"/></svg>